<svg xmlns="http://www.w3.org/2000/svg" id="svg3" viewBox="0,0,100,100" height="100" width="100" version="1.1">
  <defs id="defs3"></defs>
  
  <g id="g3" transform="translate(-190,-130)">
    <g id="g2" style="mix-blend-mode: normal" stroke-dashoffset="0" stroke-dasharray="" stroke-miterlimit="10" stroke-linejoin="miter" stroke-linecap="butt" fill-rule="nonzero" data-paper-data="{&quot;isPaintingLayer&quot;:true}">
      <path id="path1" stroke-width="0" stroke="#959196" fill="none" d="M190,230v-100h100v100z"></path>
      <path aria-label="秒" style="font-weight:bold;font-size:19.6825px;line-height:1.1;font-family:'BIZ UDPGothic';-inkscape-font-specification:'BIZ UDPGothic Bold';text-align:center;letter-spacing:0px;text-anchor:middle;fill:#ff0505;stroke-width:10;stroke-linecap:round;stroke-linejoin:round;stroke-miterlimit:3" id="text1-9" d="m 235.78594,186.80215 q -1.02833,2.67175 -2.2681,4.51699 l -1.11483,-2.0855 q 2.0855,-2.51798 3.1715,-6.02585 h -2.8159 v -1.82601 h 3.02733 v -2.68136 q -1.59536,0.25949 -2.30654,0.33637 l -0.68235,-1.57613 q 3.51748,-0.43248 6.19883,-1.41276 l 1.18211,1.55691 q -0.98029,0.33638 -2.14317,0.61508 l -0.29793,0.0769 v 3.085 h 2.38343 v 1.82601 h -2.38343 v 1.51848 q 1.43198,0.913 2.75825,2.34498 l -1.20133,1.78757 q -0.65352,-1.08599 -1.55692,-2.05667 v 8.0633 h -1.95095 z m 8.63993,-10.63893 h 2.00861 v 11.02336 q 0,1.61458 -1.74912,1.61458 -0.83613,0 -1.65303,-0.12494 l -0.33637,-1.9029 q 0.55742,0.11533 1.24938,0.11533 0.37481,0 0.44209,-0.16338 0.0384,-0.10572 0.0384,-0.34598 z m 5.51648,9.62021 q -1.00911,-3.1715 -2.58525,-6.61209 l 1.59536,-0.80729 q 1.71069,3.03695 2.73902,6.4391 z m -10.37944,-0.43248 q 1.19171,-2.27771 1.68185,-6.37182 l 1.82602,0.2691 q -0.51898,4.82452 -1.89329,7.34249 z m 0.25948,7.93836 q 4.03645,-1.31665 6.48716,-4.3536 1.23015,-1.52809 1.97978,-3.56553 l 1.88368,0.913 q -1.72991,3.79619 -4.26711,5.92013 -1.89329,1.57614 -4.82452,2.70058 z"></path>
    </g>
  </g>
</svg>


