<svg xmlns="http://www.w3.org/2000/svg" id="svg3" viewBox="0,0,100,100" height="100" width="100" version="1.1">
  <defs id="defs3"></defs>
  
  <g id="g3" transform="translate(-190,-130)">
    <g id="g2" style="mix-blend-mode: normal" stroke-dashoffset="0" stroke-dasharray="" stroke-miterlimit="10" stroke-linejoin="miter" stroke-linecap="butt" fill-rule="nonzero" data-paper-data="{&quot;isPaintingLayer&quot;:true}">
      <path aria-label="分" style="font-weight:bold;font-size:19.6825px;line-height:1.1;font-family:'BIZ UDPGothic';-inkscape-font-specification:'BIZ UDPGothic Bold';text-align:center;letter-spacing:0px;text-anchor:middle;fill:#ff0505;stroke-width:10;stroke-linecap:round;stroke-linejoin:round;stroke-miterlimit:3" id="text1" d="m 241.85504,185.37979 q -0.29793,3.13306 -1.35509,5.03595 -1.58575,2.87357 -5.44921,4.41127 l -1.35509,-1.79718 q 2.66213,-0.78807 4.20944,-2.68136 1.43198,-1.74913 1.74913,-4.96868 h -3.36371 v -1.38392 q -1.05717,1.08599 -2.36421,2.05666 l -1.37431,-1.66263 q 4.20944,-2.9024 5.9874,-8.11134 l 2.04705,0.7304 q -1.30704,3.63281 -3.79618,6.45832 h 10.93686 q -2.87357,-2.7198 -4.78608,-6.55442 l 1.95095,-0.78807 q 2.40265,4.9014 6.65053,7.49626 l -1.27821,1.89329 q -1.28782,-0.91301 -2.24888,-1.77796 l -0.01,0.39403 q -0.11532,4.9879 -0.49975,7.96719 -0.20182,1.57614 -0.90339,2.06628 -0.62469,0.44208 -2.19122,0.44208 -1.1821,0 -2.92162,-0.11532 l -0.39403,-2.02784 q 1.57613,0.21143 2.85434,0.21143 0.74963,0 0.9995,-0.21143 0.24988,-0.21143 0.39404,-1.11483 0.35559,-2.14316 0.43248,-5.96818 z"></path>
      <path id="path1" stroke-width="0" stroke="#959196" fill="none" d="M190,230v-100h100v100z"></path>
    </g>
  </g>
</svg>


