<svg xmlns="http://www.w3.org/2000/svg" id="svg3" viewBox="0,0,100,100" height="100" width="100" version="1.1">
  <defs id="defs3"></defs>
  
  <g id="g3" transform="translate(-190,-130)">
    <g id="g2" style="mix-blend-mode: normal" stroke-dashoffset="0" stroke-dasharray="" stroke-miterlimit="10" stroke-linejoin="miter" stroke-linecap="butt" fill-rule="nonzero" data-paper-data="{&quot;isPaintingLayer&quot;:true}">
      <path aria-label="時間" transform="translate(190,130)" style="font-weight:bold;font-size:19.6825px;line-height:1.1;font-family:'BIZ UDPGothic';-inkscape-font-specification:'BIZ UDPGothic Bold';text-align:center;letter-spacing:0px;text-anchor:middle;fill:#ff0505;stroke-width:10;stroke-linecap:round;stroke-linejoin:round;stroke-miterlimit:3" id="text3" d="m 48.558622,47.604812 v 13.733542 h -4.094114 v 1.633801 H 42.551999 V 47.604812 Z m -4.094114,1.787571 v 4.055672 h 2.200826 v -4.055672 z m 0,5.8048 v 4.286326 h 2.200826 v -4.286326 z m 9.014739,-6.948461 V 46.12478 h 2.047057 v 2.123942 h 4.19022 v 1.749129 h -4.19022 v 2.210437 h 5.276217 v 1.768349 H 58.04428 v 2.066279 h 2.306543 v 1.806792 H 58.04428 v 5.199332 q 0,1.057166 -0.576636,1.4512 -0.461308,0.307539 -1.566527,0.307539 -1.335873,0 -2.268101,-0.124937 l -0.394034,-1.92212 q 1.13405,0.192212 2.123942,0.192212 0.451698,0 0.567025,-0.192212 0.08649,-0.134548 0.08649,-0.442087 v -4.468927 h -6.804302 v -1.806792 h 6.804302 v -2.066279 h -7.044567 v -1.768349 h 4.50737 v -2.210437 h -3.921123 v -1.749129 z m -1.278209,14.137187 q -0.970671,-1.999004 -2.008615,-3.411762 l 1.749128,-0.98028 q 1.143661,1.383926 2.104721,3.306045 z M 70.067136,46.730248 v 7.09262 H 64.598707 V 64.827001 H 62.532428 V 46.730248 Z m -5.468429,1.537695 v 1.258988 h 3.517478 v -1.258988 z m 0,2.671746 v 1.345484 h 3.517478 v -1.345484 z m 15.079025,-4.209441 v 15.847873 q 0,1.028334 -0.384424,1.489642 -0.432477,0.538194 -1.729907,0.538194 -0.788069,0 -1.845235,-0.05766 l -0.355592,-1.970172 q 0.980281,0.115327 1.701076,0.115327 0.403645,0 0.49014,-0.172991 0.05766,-0.115327 0.05766,-0.413255 v -8.284334 h -5.612588 v -7.09262 z m -5.708694,1.537695 v 1.258988 h 3.642416 v -1.258988 z m 0,2.671746 v 1.345484 h 3.642416 v -1.345484 z m 1.182103,3.998008 v 7.40977 h -6.352604 v 1.057165 h -1.912509 v -8.466935 z m -6.352604,1.518474 v 1.355094 h 4.420874 v -1.355094 z m 0,2.815905 v 1.499253 h 4.420874 v -1.499253 z"></path>
      <path id="path1" stroke-width="0" stroke="#959196" fill="none" d="M190,230v-100h100v100z"></path>
    </g>
  </g>
</svg>


